<?xml version="1.0" encoding="iso-8859-1"?>
<!-- Generator: Adobe Illustrator 19.0.0, SVG Export Plug-In . SVG Version: 6.00 Build 0)  -->
<svg version="1.1" id="Capa_1" xmlns="http://www.w3.org/2000/svg" xmlns:xlink="http://www.w3.org/1999/xlink" x="0px" y="0px"
	 viewBox="0 0 384.094 384.094" style="enable-background:new 0 0 384.094 384.094;" xml:space="preserve">
<linearGradient id="SVGID_1_" gradientUnits="userSpaceOnUse" x1="-74.8377" y1="515.6286" x2="-74.8377" y2="563.6403" gradientTransform="matrix(8 0 0 -8 790.7484 4509.1226)">
	<stop  offset="0" style="stop-color:#29F499"/>
	<stop  offset="1" style="stop-color:#009FFC"/>
</linearGradient>
<path style="fill:url(#SVGID_1_);" d="M322.084,32.054c-0.44-0.008-0.864-0.016-1.28-0.016c-13.432,0-23.856,3.856-31.728,9.552
	c-5.112-11.536-13.08-23.824-25.032-36.544c-6.072-6.448-16.192-6.752-22.616-0.704c-6.448,6.048-6.76,16.176-0.712,22.616
	c23.912,25.456,26.336,46.792,23.208,61.384c-20.88-11.096-44.512-17.656-69.656-18.072c-0.944-0.168-1.904-0.264-2.872-0.264
	c-75.24,0-132.368,54.904-153.512,147.176C27.58,228.046,0.372,259.934,0.052,294.11c-0.152,16.296,6,31.152,17.784,42.96
	c38.912,39.024,93.408,47.024,131.56,47.024c25.272,0,43.392-3.512,45.064-3.848c92.368-16.512,152.056-77.296,152.056-154.872
	c0-41.216-16.216-78.648-42.488-106.456c4.904,1.464,10.368,2.384,16.496,2.488c0.456,0.008,0.896,0.016,1.344,0.016
	c42.2,0,59.848-35.36,60.576-36.88c2.048-4.232,2.136-9.144,0.232-13.448C381.988,69.526,365.252,32.782,322.084,32.054z
	 M188.5,348.806c-0.952,0.192-95.568,18.256-148.016-34.336c-5.824-5.824-8.504-12.184-8.44-20.008
	c0.168-22.416,22.864-49.352,31.584-57.824c2.288-2.208,3.864-5.056,4.528-8.168c6.272-29.4,33.432-124.744,120.856-126.44
	c0.856,0.144,1.736,0.216,2.616,0.216c67.752,0,122.872,55.232,122.872,123.12C314.516,299.854,246.804,338.382,188.5,348.806z
	 M321.804,89.422c-0.232,0-0.48,0-0.72,0c-14.312-0.256-18.248-7.704-19.224-13.04c1.144-5.2,5.208-12.336,18.944-12.336
	c0.232,0,0.48,0,0.728,0c13.816,0.232,22.584,7.504,27.36,13.216C344.044,82.678,335.292,89.422,321.804,89.422z"/>
<linearGradient id="SVGID_2_" gradientUnits="userSpaceOnUse" x1="-79.9778" y1="539.3126" x2="-79.9778" y2="547.4166" gradientTransform="matrix(8 0 0 -8 790.7484 4509.1226)">
	<stop  offset="0" style="stop-color:#29F499"/>
	<stop  offset="1" style="stop-color:#009FFC"/>
</linearGradient>
<path style="fill:url(#SVGID_2_);" d="M167.068,130.062c-37.816,6.984-49.88,42.016-50.376,43.504
	c-2.792,8.384,1.744,17.448,10.128,20.232c1.68,0.56,3.384,0.824,5.056,0.824c6.704,0,12.944-4.24,15.184-10.952
	c0.064-0.184,6.704-18.616,25.824-22.144c8.688-1.608,14.432-9.952,12.832-18.64C184.1,134.198,175.804,128.446,167.068,130.062z"/>
</svg>
